<svg width="1200" height="420" viewBox="0 0 1200 420" fill="none" xmlns="http://www.w3.org/2000/svg">
  <defs>
    <linearGradient id="bg" x1="68" y1="52" x2="1130" y2="376" gradientUnits="userSpaceOnUse">
      <stop offset="0" stop-color="#F6FAFF"/>
      <stop offset="1" stop-color="#EDF4FC"/>
    </linearGradient>
    <linearGradient id="lineMain" x1="186" y1="210" x2="1004" y2="210" gradientUnits="userSpaceOnUse">
      <stop stop-color="#2EC5FF"/>
      <stop offset="1" stop-color="#7DAEFF"/>
    </linearGradient>
  </defs>
  <rect width="1200" height="420" rx="28" fill="url(#bg)"/>
  <text x="72" y="78" fill="#18314E" font-family="Avenir Next, Nunito Sans, Arial, sans-serif" font-size="30" font-weight="700">One question can lead to multiple useful paths</text>
  <text x="72" y="112" fill="#5D7798" font-family="Avenir Next, Nunito Sans, Arial, sans-serif" font-size="18" font-weight="500">Focus Agent keeps the main thread clean while separate branches explore alternatives.</text>

  <path d="M186 210H1004" stroke="url(#lineMain)" stroke-width="6" stroke-linecap="round"/>
  <circle cx="186" cy="210" r="18" fill="#2EC5FF"/>
  <circle cx="590" cy="210" r="18" fill="#4FA8FF"/>
  <circle cx="1004" cy="210" r="18" fill="#7DAEFF"/>

  <path d="M420 210C470 210 486 144 536 144H694" stroke="#2DE2A6" stroke-width="5" stroke-linecap="round"/>
  <path d="M420 210C470 210 486 278 536 278H736" stroke="#FFB84D" stroke-width="5" stroke-linecap="round"/>
  <path d="M706 144C744 144 754 178 790 178H924" stroke="#2DE2A6" stroke-width="5" stroke-linecap="round"/>

  <circle cx="694" cy="144" r="14" fill="#2DE2A6"/>
  <circle cx="736" cy="278" r="14" fill="#FFB84D"/>
  <circle cx="924" cy="178" r="14" fill="#7BF2D0"/>

  <rect x="114" y="236" width="146" height="46" rx="16" fill="#12304D"/>
  <text x="138" y="265" fill="#F5FAFF" font-family="Avenir Next, Nunito Sans, Arial, sans-serif" font-size="17" font-weight="700">main question</text>

  <rect x="636" y="96" width="160" height="42" rx="14" fill="#E7FFF5"/>
  <text x="662" y="123" fill="#127455" font-family="Avenir Next, Nunito Sans, Arial, sans-serif" font-size="16" font-weight="700">verify claim</text>

  <rect x="676" y="298" width="188" height="42" rx="14" fill="#FFF4E0"/>
  <text x="703" y="325" fill="#9A5B00" font-family="Avenir Next, Nunito Sans, Arial, sans-serif" font-size="16" font-weight="700">explore alternative</text>

  <rect x="884" y="118" width="190" height="42" rx="14" fill="#E7FFF5"/>
  <text x="908" y="145" fill="#127455" font-family="Avenir Next, Nunito Sans, Arial, sans-serif" font-size="16" font-weight="700">bring back insight</text>
</svg>
